<svg xmlns="http://www.w3.org/2000/svg" width="83" height="50" viewBox="0 0 83 50"><g fill="#3B3939" fill-rule="evenodd"><path d="M78.28 0H57.146c-1.956 0-3.543 1.576-3.543 3.521v4.252c0 1.944 1.587 3.52 3.543 3.52h21.136c1.957 0 3.542-1.576 3.542-3.52V3.52C81.823 1.576 80.238 0 78.281 0M78.28 22.587H57.146c-1.956 0-3.543 1.577-3.543 3.521v4.251c0 1.945 1.587 3.52 3.543 3.52h21.136c1.957 0 3.542-1.575 3.542-3.52v-4.25c0-1.945-1.585-3.522-3.542-3.522M50.061 11.294H31.763c-1.957 0-3.543-1.578-3.543-3.522V3.52C28.22 1.576 26.635 0 24.68 0H3.543C1.586 0 0 1.575 0 3.52v4.25c0 1.945 1.586 3.523 3.543 3.523H24.68c1.957 0 3.541 1.576 3.541 3.52v4.251c0 1.946-1.585 3.522-3.541 3.522H3.543C1.586 22.587 0 24.164 0 26.108v4.251c0 1.945 1.586 3.52 3.543 3.52H24.68c1.956 0 3.541-1.575 3.541-3.52v-4.25c0-1.945 1.586-3.522 3.543-3.522h18.298c1.956 0 3.542-1.578 3.542-3.522v-4.251c0-1.944-1.586-3.52-3.542-3.52M47.968 42.835h-8.43c-1.887 0-2.53.99-2.53 2.235v4.744s-.015.102.085.102h1.661c.094 0 .086-.083.085-.096v-1.744h8.047c.03 0 .092-.01.092-.08V46.51c0-.073-.068-.08-.095-.08h-8.044v-1.517c0-.318.144-.43.495-.43h8.865c.352 0 .466.112.466.43v4.916h.001c0 .028.008.088.086.088h1.659c.076 0 .084-.06.084-.088V45.07c0-1.244-.64-2.235-2.527-2.235M10.96 42.835H2.53C.642 42.835 0 43.825 0 45.07v4.744s-.016.102.084.102h1.661c.093 0 .087-.082.085-.095v-1.745h8.047c.03 0 .091-.01.091-.08V46.51c0-.073-.067-.08-.095-.08H1.831v-1.517c0-.318.144-.43.496-.43h8.863c.354 0 .468.112.468.43v4.916c0 .028.01.088.086.088h1.659c.077 0 .084-.06.085-.088V45.07c0-1.244-.642-2.235-2.529-2.235M17.69 42.835h-1.66c-.08 0-.085.064-.085.09v6.903c0 .028.008.088.086.088h1.658c.078 0 .085-.062.085-.09v-6.904c0-.027-.008-.087-.085-.087M80.382 45.57l-9.67.001c-.18 0-.262-.068-.262-.226v-.61c0-.176.099-.25.299-.25l11.223-.003c.029 0 .091-.01.091-.08v-1.486c0-.074-.067-.08-.094-.08H70.543c-1.205 0-1.923.724-1.923 1.679v.99c0 1.14.552 1.713 2.253 1.713l9.516-.001c.17 0 .233.092.233.201v.633c0 .152-.075.218-.297.218h-11.42c-.028 0-.092.01-.092.08v1.487c0 .074.066.08.096.08h11.326c1.251 0 2.215-.47 2.215-1.76v-.928c0-1.03-.732-1.658-2.068-1.658M66.358 42.835h.001-1.661.001c-.079 0-.085.062-.085.09V45.9c0 .32-.115.45-.524.45h-9.027c-.41 0-.525-.13-.525-.45v-2.979.002c0-.029-.01-.09-.086-.09h.001-1.66c-.077 0-.084.062-.084.09v2.825c0 1.244.641 2.235 2.526 2.235h3.427v1.845c0 .029.008.087.084.087h1.66c.077 0 .085-.06.085-.09v-1.842h3.424c1.887 0 2.528-.991 2.528-2.235v-2.825c0-.029-.008-.09-.085-.09M26.643 46.944H28.3c.077 0 .083-.058.083-.085v-3.923c0-.03-.01-.08-.082-.08h-1.66.001c-.073 0-.082.052-.083.083v3.918c0 .027.009.087.084.087"/><path d="M34.63 42.856h-1.66c-.08 0-.085.064-.085.09v4.874c0 .317-.116.45-.525.45h-9.776c-.411 0-.525-.133-.525-.45v-4.878c0-.028-.01-.086-.085-.086h-1.66c-.078 0-.085.064-.085.09v4.735c0 1.244.641 2.235 2.528 2.235h9.428c1.888 0 2.529-.99 2.529-2.235v-4.74c-.001-.03-.01-.085-.085-.085"/></g></svg>